<svg width="33" height="33" viewBox="0 0 33 33" fill="none" xmlns="http://www.w3.org/2000/svg">
<g clip-path="url(#clip0_79_277)">
<path d="M21.239 15.2588L20.9726 17.396C20.9514 17.5686 20.8679 17.7275 20.7377 17.8429C20.6075 17.9582 20.4397 18.022 20.2658 18.0223H16.8003V26.9706C16.4348 27.0039 16.0648 27.0205 15.6902 27.0205C14.8693 27.0215 14.0503 26.9406 13.2454 26.779V18.0247H10.5801C10.4622 18.0241 10.3493 17.9768 10.266 17.8933C10.1828 17.8098 10.136 17.6967 10.1357 17.5787V14.9005C10.136 14.7826 10.1828 14.6695 10.266 14.586C10.3493 14.5024 10.4622 14.4552 10.5801 14.4546H13.2454V10.44C13.2443 9.85534 13.3583 9.27614 13.581 8.7355C13.8037 8.19486 14.1306 7.70337 14.5433 7.2891C14.9559 6.87483 15.4461 6.5459 15.9858 6.32107C16.5256 6.09624 17.1043 5.97992 17.689 5.97876H20.7987C20.9166 5.9794 21.0295 6.02664 21.1128 6.11018C21.196 6.19372 21.2429 6.30679 21.2431 6.42473V9.10456C21.2429 9.22249 21.196 9.33556 21.1128 9.4191C21.0295 9.50265 20.9166 9.54989 20.7987 9.55053H18.5769C18.3431 9.55105 18.1116 9.59763 17.8958 9.68761C17.68 9.77758 17.484 9.90919 17.319 10.0749C17.154 10.2406 17.0233 10.4372 16.9343 10.6535C16.8453 10.8697 16.7998 11.1014 16.8003 11.3352V14.4586H20.5323C20.6331 14.4589 20.7328 14.4805 20.8247 14.5221C20.9166 14.5637 20.9986 14.6243 21.0654 14.6999C21.1322 14.7755 21.1822 14.8644 21.2121 14.9607C21.242 15.057 21.2512 15.1586 21.239 15.2588Z" fill="#CAF7FF"/>
<path d="M29.1643 0H3.83588C2.81849 -2.2395e-08 1.84275 0.404102 1.12327 1.12343C0.403789 1.84276 -0.000518953 2.81841 -0.000732422 3.8358V29.1634C-0.000518953 30.1808 0.403789 31.1564 1.12327 31.8758C1.84275 32.5951 2.81849 32.9992 3.83588 32.9992H29.1643C30.1815 32.999 31.157 32.5948 31.8764 31.8755C32.5957 31.1562 32.9999 30.1806 33.0001 29.1634V3.8358C32.9999 2.81855 32.5957 1.84302 31.8764 1.12372C31.157 0.40441 30.1815 0.000213417 29.1643 0ZM31.4658 29.1634C31.4649 29.7735 31.2221 30.3584 30.7907 30.7898C30.3593 31.2213 29.7744 31.464 29.1643 31.4649H3.83588C3.22575 31.464 2.64085 31.2213 2.20942 30.7898C1.778 30.3584 1.53525 29.7735 1.5344 29.1634V3.8358C1.5361 3.22623 1.77922 2.64216 2.21056 2.21143C2.64189 1.7807 3.22631 1.53839 3.83588 1.53754H29.1643C29.7744 1.53839 30.3593 1.78114 30.7907 2.21257C31.2221 2.644 31.4649 3.2289 31.4658 3.83903V29.1634Z" fill="#CAF7FF"/>
</g>
<defs>
<clipPath id="clip0_79_277">
<rect width="33" height="33" fill="white"/>
</clipPath>
</defs>
</svg>
