<svg width="33" height="33" viewBox="0 0 33 33" fill="none" xmlns="http://www.w3.org/2000/svg">
<g clip-path="url(#clip0_79_287)">
<path d="M10.8512 12.7237C11.9889 12.7237 12.9112 11.8014 12.9112 10.6637C12.9112 9.52605 11.9889 8.60376 10.8512 8.60376C9.71355 8.60376 8.79126 9.52605 8.79126 10.6637C8.79126 11.8014 9.71355 12.7237 10.8512 12.7237Z" fill="#CAF7FF"/>
<path d="M12.4146 14.0962H9.28876C9.20385 14.0962 9.13501 14.165 9.13501 14.2499V24.2416C9.13501 24.3265 9.20385 24.3953 9.28876 24.3953H12.4146C12.4995 24.3953 12.5683 24.3265 12.5683 24.2416V14.2499C12.5683 14.165 12.4995 14.0962 12.4146 14.0962Z" fill="#CAF7FF"/>
<path d="M24.2408 17.8734V23.7096C24.2401 23.8915 24.1676 24.0658 24.0389 24.1944C23.9103 24.3231 23.736 24.3956 23.5541 24.3963H21.4941C21.3122 24.3956 21.1379 24.3231 21.0093 24.1944C20.8806 24.0658 20.8081 23.8915 20.8075 23.7096V18.903C20.7977 18.4541 20.6126 18.0269 20.2917 17.7129C19.9709 17.3989 19.5398 17.2231 19.0908 17.2231C18.6419 17.2231 18.2108 17.3989 17.8899 17.7129C17.569 18.0269 17.3839 18.4541 17.3742 18.903V23.7096C17.3737 23.8916 17.3012 24.066 17.1726 24.1947C17.0439 24.3234 16.8695 24.3958 16.6875 24.3963H14.6283C14.4463 24.3958 14.2719 24.3234 14.1432 24.1947C14.0146 24.066 13.9421 23.8916 13.9417 23.7096V14.7838C13.9419 14.6018 14.0143 14.4272 14.143 14.2985C14.2717 14.1698 14.4463 14.0974 14.6283 14.0972H16.6859C16.8679 14.0974 17.0425 14.1698 17.1712 14.2985C17.2999 14.4272 17.3723 14.6018 17.3725 14.7838V15.2225C18.0592 14.337 19.1959 13.7534 20.4629 13.7534C22.3595 13.7534 24.2408 15.1267 24.2408 17.8734Z" fill="#CAF7FF"/>
<path d="M29.1634 -0.00219727H3.83661C2.81908 -0.00219727 1.84323 0.402016 1.12372 1.12152C0.404218 1.84102 0 2.81688 0 3.83441V29.1612C0 30.1787 0.404218 31.1546 1.12372 31.8741C1.84323 32.5936 2.81908 32.9978 3.83661 32.9978H29.1634C30.1809 32.9978 31.1568 32.5936 31.8763 31.8741C32.5958 31.1546 33 30.1787 33 29.1612V3.83683C33.0003 3.33279 32.9013 2.83364 32.7087 2.36788C32.516 1.90212 32.2334 1.47889 31.8771 1.12237C31.5208 0.765857 31.0978 0.483039 30.6322 0.290081C30.1665 0.0971218 29.6674 -0.00219737 29.1634 -0.00219727ZM31.4649 29.1612C31.4644 29.7715 31.2219 30.3568 30.7904 30.7884C30.3589 31.2201 29.7737 31.4628 29.1634 31.4635H3.83661C3.2262 31.4628 2.64098 31.2201 2.20936 30.7885C1.77773 30.3568 1.53497 29.7716 1.53433 29.1612V3.83683C1.53497 3.22642 1.77773 2.6412 2.20936 2.20957C2.64098 1.77795 3.2262 1.53518 3.83661 1.53454H29.1634C29.7737 1.53518 30.3589 1.77797 30.7904 2.20962C31.2219 2.64127 31.4644 3.22649 31.4649 3.83683V29.1612Z" fill="#CAF7FF"/>
</g>
<defs>
<clipPath id="clip0_79_287">
<rect width="33" height="33" fill="white"/>
</clipPath>
</defs>
</svg>
