<svg width="33" height="33" viewBox="0 0 33 33" fill="none" xmlns="http://www.w3.org/2000/svg">
<g clip-path="url(#clip0_79_292)">
<path d="M20.8558 8.11035H12.1779C11.6458 8.11035 11.1188 8.21521 10.6272 8.41893C10.1356 8.62265 9.68896 8.92124 9.31278 9.29764C8.9366 9.67404 8.63827 10.1209 8.43484 10.6126C8.23141 11.1044 8.12688 11.6314 8.1272 12.1635V20.8389C8.12741 21.9131 8.55427 22.9432 9.31391 23.7027C10.0735 24.4622 11.1037 24.8889 12.1779 24.8889H20.8558C21.9298 24.8887 22.9598 24.4619 23.7193 23.7024C24.4788 22.943 24.9055 21.913 24.9057 20.8389V12.1635C24.906 11.6314 24.8015 11.1045 24.5982 10.6128C24.3948 10.1211 24.0965 9.67432 23.7204 9.29792C23.3443 8.92153 22.8978 8.62292 22.4063 8.41916C21.9147 8.21539 21.3879 8.11046 20.8558 8.11035ZM23.4591 20.5491C23.4579 21.3161 23.1526 22.0512 22.6104 22.5935C22.0681 23.1358 21.3329 23.441 20.566 23.4423H12.4661C11.6993 23.4408 10.9644 23.1355 10.4223 22.5932C9.88016 22.051 9.57505 21.3159 9.57377 20.5491V12.4501C9.57505 11.6833 9.88016 10.9483 10.4223 10.406C10.9644 9.86374 11.6993 9.55842 12.4661 9.55693H20.566C21.3329 9.55821 22.0681 9.86343 22.6104 10.4057C23.1526 10.948 23.4579 11.6832 23.4591 12.4501V20.5491Z" fill="#CAF7FF"/>
<path d="M16.516 12.1636C15.6577 12.1636 14.8186 12.4181 14.105 12.895C13.3913 13.3718 12.8351 14.0496 12.5066 14.8426C12.1781 15.6355 12.0922 16.5081 12.2597 17.3499C12.4271 18.1918 12.8404 18.965 13.4474 19.572C14.0543 20.1789 14.8275 20.5922 15.6694 20.7597C16.5112 20.9271 17.3838 20.8412 18.1768 20.5127C18.9697 20.1842 19.6475 19.628 20.1244 18.9143C20.6012 18.2007 20.8557 17.3616 20.8557 16.5033C20.8553 15.3525 20.398 14.2489 19.5842 13.4351C18.7704 12.6214 17.6668 12.164 16.516 12.1636ZM16.516 19.3957C15.9438 19.3957 15.3844 19.226 14.9086 18.908C14.4328 18.5901 14.062 18.1382 13.843 17.6095C13.624 17.0808 13.5668 16.499 13.6785 15.9378C13.7902 15.3765 14.0658 14.861 14.4705 14.4564C14.8752 14.0519 15.3908 13.7764 15.9521 13.6648C16.5133 13.5533 17.0951 13.6107 17.6237 13.8298C18.1524 14.0489 18.6042 14.4199 18.922 14.8957C19.2398 15.3716 19.4093 15.9311 19.4092 16.5033C19.4068 17.2695 19.1011 18.0036 18.5589 18.5451C18.0168 19.0865 17.2822 19.3912 16.516 19.3924V19.3957Z" fill="#CAF7FF"/>
<path d="M21.1449 12.739C21.6242 12.739 22.0127 12.3505 22.0127 11.8712C22.0127 11.3919 21.6242 11.0034 21.1449 11.0034C20.6656 11.0034 20.2771 11.3919 20.2771 11.8712C20.2771 12.3505 20.6656 12.739 21.1449 12.739Z" fill="#CAF7FF"/>
<path d="M29.1634 0H3.83661C2.81922 -2.2395e-08 1.84349 0.404102 1.12401 1.12343C0.404526 1.84276 0.000213469 2.81841 0 3.8358V29.1634C0.000213469 30.1808 0.404526 31.1564 1.12401 31.8758C1.84349 32.5951 2.81922 32.9992 3.83661 32.9992H29.1634C30.1808 32.9992 31.1565 32.5951 31.876 31.8758C32.5955 31.1564 32.9998 30.1808 33 29.1634V3.8358C32.9998 2.81841 32.5955 1.84276 31.876 1.12343C31.1565 0.404102 30.1808 -2.2395e-08 29.1634 0ZM31.4649 29.1634C31.4642 29.7736 31.2216 30.3586 30.7901 30.7901C30.3586 31.2215 29.7736 31.4642 29.1634 31.4649H3.83661C3.22634 31.4642 2.64124 31.2216 2.20964 30.7901C1.77804 30.3587 1.53518 29.7737 1.53433 29.1634V3.8358C1.53518 3.22554 1.77804 2.64052 2.20964 2.20907C2.64124 1.77762 3.22634 1.53496 3.83661 1.53432H29.1634C29.7736 1.53496 30.3586 1.77764 30.7901 2.20912C31.2216 2.64059 31.4642 3.22561 31.4649 3.8358V29.1634Z" fill="#CAF7FF"/>
</g>
<defs>
<clipPath id="clip0_79_292">
<rect width="33" height="33" fill="white"/>
</clipPath>
</defs>
</svg>
