<svg width="152" height="34" viewBox="0 0 152 34" fill="none" xmlns="http://www.w3.org/2000/svg">
<g clip-path="url(#clip0_67_2)">
<path d="M30.6268 17.522V27.8242H6.14519V0H0V34H36.772V17.522H30.6268Z" fill="url(#paint0_linear_67_2)"/>
<path d="M14.3731 19.1508L14.3672 19.2112H8.57882V26.1819H15.4661C15.4661 24.365 15.4608 22.57 15.4661 20.7558C15.4661 20.0566 15.7601 19.6356 16.333 19.4689C16.8722 19.3122 17.3585 19.5486 17.7206 20.1475C18.8842 22.0587 20.0512 23.9679 21.2042 25.8857C21.3423 26.1155 21.4824 26.2098 21.7546 26.2065C24.1565 26.1832 26.4554 26.2011 28.883 26.1958C27.4954 23.9008 25.9994 21.6928 24.5563 19.433C24.5038 19.3678 24.4383 19.3143 24.364 19.276C24.2896 19.2377 24.2082 19.2154 24.1248 19.2106C22.2747 19.1933 20.4859 19.2039 18.6305 19.2026C21.7645 15.2972 24.8378 11.4676 27.9434 7.60009C25.3492 7.56622 22.7669 7.59212 20.1734 7.60009C20.0148 7.60009 19.812 7.7329 19.7062 7.86106C18.3061 9.58763 16.9442 11.3507 15.5434 13.0779L15.4634 13.0328V1.74438H8.57155C9.03144 7.75349 6.0844 17.735 14.3731 19.1508Z" fill="url(#paint1_linear_67_2)"/>
<path d="M47.6695 25.1858H45.4467V9.86719H47.6695V16.549H47.6913L47.9477 16.205L53.2279 9.86719H55.8142L49.9994 17.0211L56.475 25.1851H53.9779L47.6695 17.1287V25.1858Z" fill="#092C35"/>
<path d="M64.7485 23.6819C64.5396 23.9188 64.3144 24.1407 64.0745 24.3459C63.8216 24.5631 63.5498 24.7571 63.2624 24.9257C62.9714 25.097 62.6633 25.2375 62.3433 25.3447C62.0157 25.4534 61.6727 25.5079 61.3277 25.5061C60.7134 25.5151 60.1056 25.3786 59.5535 25.1076C59.03 24.8459 58.5673 24.4762 58.1956 24.0225C57.8096 23.5485 57.5159 23.0056 57.33 22.4221C57.1264 21.7872 57.0253 21.1236 57.0307 20.4565C57.0203 19.6957 57.1584 18.9401 57.4371 18.2326C57.6913 17.592 58.0736 17.0107 58.5604 16.5246C59.055 16.0416 59.645 15.6683 60.2923 15.4289C61.0073 15.1645 61.7645 15.0335 62.5263 15.0424C63.0095 15.0405 63.4909 15.1019 63.9582 15.225C64.7534 15.4312 65.5061 15.7767 66.1817 16.2457C66.4166 16.4059 66.6376 16.5856 66.8425 16.7829V25.186H64.7485V23.6819ZM62.0546 23.66C62.3329 23.6582 62.6072 23.592 62.8561 23.4667C63.1253 23.3343 63.3768 23.1683 63.6047 22.9727C63.8449 22.7667 64.0632 22.5364 64.2563 22.2854C64.4451 22.0442 64.6099 21.7851 64.7485 21.5117V17.793C64.6765 17.7359 64.5734 17.6568 64.438 17.5566C64.2847 17.4453 64.124 17.3448 63.9569 17.2557C63.7515 17.1484 63.537 17.0596 63.316 16.9901C63.0528 16.9085 62.7786 16.8686 62.5032 16.8719C62.0543 16.8682 61.6087 16.9483 61.1889 17.1083C60.7926 17.2605 60.4303 17.4903 60.1231 17.7843C59.8098 18.0883 59.5623 18.4541 59.3963 18.8588C59.2144 19.305 59.1245 19.7837 59.132 20.2659C59.132 21.3112 59.3778 22.1382 59.8694 22.7469C60.361 23.3556 61.09 23.6595 62.0565 23.6586L62.0546 23.66Z" fill="#092C35"/>
<path d="M78.5389 25.1859H76.4442V19.4922C76.4442 19.2771 76.4301 19.0192 76.4019 18.7186C76.3733 18.4194 76.29 18.1281 76.1561 17.8593C76.0154 17.5816 75.81 17.3422 75.5575 17.1614C75.2932 16.9683 74.9262 16.8716 74.4566 16.8712C74.1669 16.8695 73.8781 16.9057 73.5976 16.9787C73.342 17.0451 73.092 17.1312 72.8496 17.2364C72.6428 17.3255 72.4427 17.4296 72.251 17.5478C72.0798 17.6554 71.9377 17.7517 71.8234 17.838L71.7805 17.9044V25.1859H69.666V16.9568C69.972 16.7028 70.2972 16.473 70.6387 16.2695C71.0238 16.0363 71.4235 15.8282 71.8353 15.6466C72.2591 15.4591 72.6993 15.3117 73.1503 15.2064C73.5987 15.0996 74.0579 15.0455 74.5187 15.045C75.2024 15.045 75.8009 15.1632 76.3141 15.3996C76.8101 15.6229 77.2488 15.9572 77.5966 16.3771C78.1542 16.0108 78.7446 15.6978 79.3602 15.4421C79.9724 15.1816 80.6301 15.0462 81.295 15.0437C81.8811 15.0332 82.4631 15.1427 83.0057 15.3657C83.4834 15.5662 83.9132 15.8666 84.2665 16.2469C84.614 16.6287 84.8796 17.0783 85.0468 17.5678C85.2285 18.1038 85.3179 18.667 85.3111 19.2332V25.1859H83.2158V19.4922C83.2158 19.2771 83.2015 19.0192 83.1729 18.7186C83.1449 18.4193 83.0615 18.1278 82.9271 17.8593C82.7848 17.5794 82.5754 17.3396 82.3178 17.1614C82.0469 16.9683 81.6694 16.8716 81.1853 16.8712C80.8813 16.8698 80.5788 16.9132 80.2873 17C80.0196 17.0792 79.7586 17.1798 79.5069 17.3008C79.2921 17.4039 79.085 17.5224 78.8871 17.6554C78.7426 17.7515 78.6034 17.8555 78.4702 17.9669L78.4041 18.01C78.4911 18.4123 78.5341 18.8229 78.5323 19.2346L78.5389 25.1859Z" fill="#092C35"/>
<path d="M87.902 11.9086C87.9 11.743 87.9312 11.5788 87.9936 11.4256C88.056 11.2723 88.1485 11.1333 88.2654 11.0167C88.5073 10.7666 88.8207 10.6413 89.2057 10.6409C89.6048 10.6409 89.9255 10.7662 90.1678 11.0167C90.2847 11.1333 90.3772 11.2723 90.4396 11.4256C90.502 11.5788 90.5332 11.743 90.5312 11.9086C90.5337 12.0725 90.5027 12.2352 90.4402 12.3867C90.3777 12.5381 90.285 12.6751 90.1678 12.7891C89.9251 13.0326 89.6044 13.1543 89.2057 13.1543C88.8211 13.1543 88.5077 13.0326 88.2654 12.7891C88.1482 12.6751 88.0555 12.5381 87.993 12.3867C87.9305 12.2352 87.8995 12.0725 87.902 11.9086ZM88.1584 15.367H90.2543V25.1858H88.159L88.1584 15.367Z" fill="#092C35"/>
<path d="M93.0956 8.49194H95.1909V25.1858H93.0956V8.49194Z" fill="#092C35"/>
<path d="M105.452 19.7717C105.452 20.9032 105.755 21.8199 106.361 22.5216C106.966 23.2233 107.847 23.5741 109.004 23.5741C110.158 23.5741 111.045 23.2268 111.665 22.5322C112.286 21.8376 112.595 20.8816 112.595 19.6641V9.84595H114.819V19.7717C114.819 20.7014 114.673 21.5204 114.38 22.2287C114.114 22.9069 113.703 23.5183 113.177 24.0199C112.651 24.5215 112.021 24.9011 111.333 25.132C110.583 25.3886 109.795 25.5157 109.003 25.5079C108.2 25.5171 107.402 25.3749 106.651 25.0888C105.969 24.8289 105.346 24.4304 104.824 23.9181C104.309 23.403 103.908 22.7843 103.648 22.1025C103.364 21.3591 103.222 20.5681 103.231 19.7717V9.84595H105.452V19.7717Z" fill="#092C35"/>
<path d="M117.637 22.8869C118.008 23.1782 118.423 23.4067 118.866 23.5636C119.263 23.698 119.678 23.7668 120.096 23.7675C120.68 23.7675 121.104 23.6493 121.368 23.4129C121.632 23.1765 121.764 22.8365 121.765 22.3929C121.766 22.2328 121.733 22.0744 121.668 21.9281C121.604 21.7818 121.509 21.6509 121.391 21.5442C121.141 21.3078 120.66 21.0464 119.947 20.7599C119.663 20.6311 119.371 20.4843 119.071 20.3197C118.773 20.1554 118.499 19.949 118.259 19.7067C118.016 19.4618 117.816 19.179 117.664 18.8693C117.499 18.5205 117.419 18.1376 117.429 17.7517C117.428 17.3968 117.501 17.0456 117.642 16.7204C117.786 16.3901 118.001 16.0964 118.273 15.8611C118.576 15.6031 118.924 15.403 119.299 15.2708C119.756 15.1118 120.237 15.0353 120.721 15.045C121.288 15.0406 121.853 15.1167 122.399 15.2708C122.919 15.4209 123.321 15.6106 123.606 15.8399L122.813 17.172C122.642 17.0148 122.389 16.886 122.054 16.7855C121.711 16.684 121.355 16.6332 120.997 16.6348C120.455 16.6348 120.074 16.7565 119.853 17C119.632 17.2435 119.522 17.4941 119.523 17.7517C119.523 18.1391 119.701 18.4543 120.057 18.6974C120.463 18.9699 120.891 19.2078 121.336 19.4086C121.665 19.5592 121.986 19.7277 122.298 19.9132C122.59 20.0866 122.859 20.2959 123.099 20.5361C123.335 20.7738 123.524 21.0547 123.655 21.3636C123.799 21.7251 123.869 22.1124 123.859 22.5018C123.858 22.8903 123.778 23.2746 123.623 23.6307C123.464 23.9996 123.227 24.3294 122.928 24.5975C122.599 24.889 122.218 25.1145 121.805 25.2616C121.317 25.4338 120.802 25.5174 120.285 25.5086C119.558 25.5086 118.913 25.4048 118.35 25.1972C117.808 25.0012 117.3 24.7221 116.843 24.3698L117.637 22.8869Z" fill="#092C35"/>
<path d="M126.189 22.8869C126.559 23.1783 126.974 23.4069 127.418 23.5636C127.814 23.698 128.229 23.7668 128.647 23.7675C129.231 23.7675 129.655 23.6493 129.919 23.4129C130.183 23.1765 130.315 22.8365 130.316 22.3929C130.317 22.2328 130.284 22.0744 130.22 21.9281C130.155 21.7818 130.06 21.6509 129.942 21.5442C129.692 21.3078 129.211 21.0464 128.499 20.7599C128.213 20.6311 127.921 20.4843 127.622 20.3197C127.324 20.1554 127.05 19.949 126.81 19.7067C126.566 19.4621 126.364 19.1793 126.211 18.8693C126.047 18.5204 125.966 18.1376 125.976 17.7517C125.975 17.3968 126.048 17.0456 126.19 16.7204C126.333 16.3901 126.549 16.0965 126.82 15.8611C127.124 15.6033 127.471 15.4032 127.846 15.2708C128.303 15.1118 128.785 15.0353 129.268 15.045C129.835 15.0406 130.4 15.1166 130.946 15.2708C131.466 15.4209 131.869 15.6106 132.154 15.8399L131.361 17.172C131.19 17.0148 130.937 16.886 130.603 16.7855C130.259 16.684 129.903 16.6332 129.545 16.6348C129.003 16.6348 128.622 16.7565 128.401 17C128.181 17.2435 128.071 17.4941 128.071 17.7517C128.071 18.1391 128.249 18.4543 128.606 18.6974C129.012 18.97 129.441 19.2079 129.887 19.4086C130.216 19.5592 130.538 19.7277 130.849 19.9132C131.141 20.0866 131.41 20.2959 131.65 20.5361C131.887 20.7738 132.075 21.0547 132.206 21.3636C132.35 21.7251 132.42 22.1124 132.41 22.5018C132.409 22.8903 132.329 23.2746 132.174 23.6307C132.015 23.9996 131.778 24.3294 131.479 24.5975C131.151 24.889 130.769 25.1145 130.356 25.2616C129.868 25.4338 129.353 25.5174 128.836 25.5086C128.109 25.5086 127.464 25.4048 126.902 25.1972C126.36 25.0013 125.851 24.7222 125.394 24.3698L126.189 22.8869Z" fill="#092C35"/>
<path d="M141.751 23.6819C141.542 23.9189 141.317 24.1408 141.078 24.3459C140.825 24.5631 140.553 24.7571 140.266 24.9257C139.974 25.097 139.666 25.2375 139.346 25.3447C139.019 25.4533 138.676 25.5078 138.331 25.5061C137.716 25.5151 137.109 25.3786 136.557 25.1076C136.033 24.8459 135.57 24.4762 135.199 24.0225C134.813 23.5485 134.519 23.0056 134.333 22.4221C134.129 21.7872 134.028 21.1236 134.034 20.4565C134.023 19.6957 134.161 18.9401 134.44 18.2326C134.694 17.592 135.077 17.0107 135.563 16.5246C136.058 16.0416 136.648 15.6683 137.295 15.4289C138.01 15.1645 138.767 15.0335 139.529 15.0424C140.013 15.0405 140.494 15.1019 140.961 15.225C141.756 15.4323 142.507 15.7787 143.182 16.2484C143.417 16.4085 143.638 16.5882 143.843 16.7856V25.186H141.748L141.751 23.6819ZM139.058 23.66C139.336 23.6581 139.61 23.592 139.859 23.4667C140.128 23.3343 140.38 23.1683 140.608 22.9727C141.079 22.5643 141.467 22.0682 141.751 21.5117V17.793C141.68 17.7359 141.576 17.6571 141.441 17.5566C141.288 17.4454 141.127 17.3449 140.96 17.2557C140.755 17.1484 140.54 17.0596 140.319 16.9901C140.056 16.9085 139.782 16.8686 139.506 16.8719C139.057 16.8682 138.612 16.9483 138.192 17.1083C137.794 17.2603 137.431 17.4903 137.123 17.785C136.809 18.089 136.562 18.4548 136.396 18.8594C136.214 19.3057 136.124 19.7844 136.132 20.2666C136.132 21.3118 136.378 22.1388 136.869 22.7475C137.361 23.3563 138.09 23.66 139.058 23.6586V23.66Z" fill="#092C35"/>
<path d="M148.763 10.2969V15.367H151.222V17.1075H148.763V22.1132C148.763 22.6143 148.851 23.0011 149.028 23.2733C149.204 23.5456 149.5 23.6817 149.915 23.6817C150.309 23.6873 150.696 23.5749 151.026 23.359L151.687 24.7535C151.559 24.8686 151.31 25.0236 150.939 25.2184C150.569 25.4131 150.106 25.5099 149.552 25.5086C149.155 25.513 148.761 25.4586 148.381 25.3472C148.034 25.2438 147.72 25.0513 147.469 24.7887C147.216 24.5231 147.017 24.1689 146.875 23.7262C146.732 23.2835 146.661 22.725 146.663 22.0508V10.2969H148.763Z" fill="#092C35"/>
</g>
<defs>
<linearGradient id="paint0_linear_67_2" x1="-5.60269" y1="7.38769" x2="34.1132" y2="37.506" gradientUnits="userSpaceOnUse">
<stop stop-color="#007EAC"/>
<stop offset="1" stop-color="#47B3E4"/>
</linearGradient>
<linearGradient id="paint1_linear_67_2" x1="4.86593" y1="6.63122" x2="29.5336" y2="25.3386" gradientUnits="userSpaceOnUse">
<stop stop-color="#007EAC"/>
<stop offset="1" stop-color="#47B3E4"/>
</linearGradient>
<clipPath id="clip0_67_2">
<rect width="151.692" height="34" fill="white"/>
</clipPath>
</defs>
</svg>
