<svg width="37" height="34" viewBox="0 0 37 34" fill="none" xmlns="http://www.w3.org/2000/svg">
<path d="M30.6268 17.522V27.8242H6.14519V0H0V34H36.772V17.522H30.6268Z" fill="url(#paint0_linear_217_25)"/>
<path d="M14.3731 19.1508L14.3672 19.2112H8.57882V26.1819H15.4661C15.4661 24.365 15.4608 22.57 15.4661 20.7558C15.4661 20.0566 15.7601 19.6356 16.333 19.4689C16.8722 19.3122 17.3585 19.5486 17.7206 20.1475C18.8842 22.0587 20.0512 23.9679 21.2042 25.8857C21.3423 26.1155 21.4824 26.2098 21.7546 26.2065C24.1565 26.1832 26.4554 26.2011 28.883 26.1958C27.4954 23.9008 25.9994 21.6928 24.5563 19.433C24.5038 19.3678 24.4383 19.3143 24.364 19.276C24.2896 19.2377 24.2082 19.2154 24.1248 19.2106C22.2747 19.1933 20.4859 19.2039 18.6305 19.2026C21.7645 15.2972 24.8378 11.4676 27.9434 7.60009C25.3492 7.56622 22.7669 7.59212 20.1734 7.60009C20.0148 7.60009 19.812 7.7329 19.7062 7.86106C18.3061 9.58763 16.9442 11.3507 15.5434 13.0779L15.4634 13.0328V1.74438H8.57155C9.03144 7.75349 6.0844 17.735 14.3731 19.1508Z" fill="url(#paint1_linear_217_25)"/>
<defs>
<linearGradient id="paint0_linear_217_25" x1="-5.60269" y1="7.38769" x2="34.1132" y2="37.506" gradientUnits="userSpaceOnUse">
<stop stop-color="#007EAC"/>
<stop offset="1" stop-color="#47B3E4"/>
</linearGradient>
<linearGradient id="paint1_linear_217_25" x1="4.86593" y1="6.63122" x2="29.5336" y2="25.3386" gradientUnits="userSpaceOnUse">
<stop stop-color="#007EAC"/>
<stop offset="1" stop-color="#47B3E4"/>
</linearGradient>
</defs>
</svg>
