<svg width="155" height="64" viewBox="0 0 155 64" fill="none" xmlns="http://www.w3.org/2000/svg">
<path d="M155 5.73134L155 64L15.5109 64L15.5109 58.2687L15.5109 14.7313C15.5109 9.76077 19.5403 5.73134 24.5109 5.73134L142.692 5.73134C147.499 5.73134 150.193 5.73134 155 5.73134Z" fill="#A0E5FF"/>
<path d="M142.692 5.73134L155 5.73134L155 0C155 2.86567 148.846 5.73134 142.692 5.73134Z" fill="#A0E5FF"/>
<path d="M1.15169 64L15.5109 64L15.5109 58.2687C15.5109 61.1343 7.30562 64 1.15169 64Z" fill="#A0E5FF"/>
<path d="M155 64L155 5.73134L142.692 5.73134L24.5109 5.73134C19.5403 5.73134 15.5109 9.76077 15.5109 14.7313L15.5109 58.2687L15.5109 64L155 64Z" fill="#A0E5FF"/>
</svg>
