<svg width="25" height="25" viewBox="0 0 25 25" fill="none" xmlns="http://www.w3.org/2000/svg">
<path d="M22.0935 0H2.90653C2.13567 0 1.39638 0.306222 0.851304 0.851301C0.306226 1.39638 0 2.13566 0 2.90652V22.0935C0 22.8643 0.306226 23.6036 0.851304 24.1487C1.39638 24.6938 2.13567 25 2.90653 25H22.0935C22.8643 25 23.6036 24.6938 24.1487 24.1487C24.6938 23.6036 25 22.8643 25 22.0935V2.90835C25.0002 2.52651 24.9252 2.14836 24.7793 1.79551C24.6333 1.44266 24.4193 1.12204 24.1493 0.851949C23.8794 0.581859 23.5589 0.367603 23.2062 0.221423C22.8534 0.0752417 22.4753 -7.56467e-08 22.0935 0ZM23.837 22.0935C23.8367 22.5559 23.6529 22.9992 23.326 23.3262C22.9991 23.6532 22.5559 23.8372 22.0935 23.8376H2.90653C2.44409 23.8372 2.00074 23.6532 1.67375 23.3263C1.34677 22.9993 1.16285 22.5559 1.16237 22.0935V2.90835C1.16285 2.44592 1.34677 2.00257 1.67375 1.67558C2.00074 1.34859 2.44409 1.16468 2.90653 1.1642H22.0935C22.5559 1.16468 22.9991 1.34861 23.326 1.67562C23.6529 2.00263 23.8367 2.44598 23.837 2.90835V22.0935Z" fill="#006083"/>
<path d="M12.5 18.1818C12.5 18.1818 17.0455 13.8742 17.0455 10.6061C17.0455 9.40053 16.5666 8.24438 15.7141 7.39194C14.8617 6.5395 13.7055 6.06061 12.5 6.06061C11.2945 6.06061 10.1383 6.5395 9.28588 7.39194C8.43344 8.24438 7.95455 9.40053 7.95455 10.6061C7.95455 13.8742 12.5 18.1818 12.5 18.1818ZM12.5 12.8788C11.8972 12.8788 11.3192 12.6393 10.8929 12.2131C10.4667 11.7869 10.2273 11.2088 10.2273 10.6061C10.2273 10.0033 10.4667 9.42522 10.8929 8.999C11.3192 8.57278 11.8972 8.33333 12.5 8.33333C13.1028 8.33333 13.6808 8.57278 14.1071 8.999C14.5333 9.42522 14.7727 10.0033 14.7727 10.6061C14.7727 11.2088 14.5333 11.7869 14.1071 12.2131C13.6808 12.6393 13.1028 12.8788 12.5 12.8788Z" fill="#006083"/>
</svg>
