<svg width="25" height="25" viewBox="0 0 25 25" fill="none" xmlns="http://www.w3.org/2000/svg">
<path d="M22.0935 0H2.90653C2.13567 0 1.39638 0.306222 0.851304 0.851301C0.306226 1.39638 0 2.13566 0 2.90652V22.0935C0 22.8643 0.306226 23.6036 0.851304 24.1487C1.39638 24.6938 2.13567 25 2.90653 25H22.0935C22.8643 25 23.6036 24.6938 24.1487 24.1487C24.6938 23.6036 25 22.8643 25 22.0935V2.90835C25.0002 2.52651 24.9252 2.14836 24.7793 1.79551C24.6333 1.44266 24.4193 1.12204 24.1493 0.851949C23.8794 0.581859 23.5589 0.367603 23.2062 0.221423C22.8534 0.0752417 22.4753 -7.56467e-08 22.0935 0ZM23.837 22.0935C23.8367 22.5559 23.6529 22.9992 23.326 23.3262C22.9991 23.6532 22.5559 23.8372 22.0935 23.8376H2.90653C2.44409 23.8372 2.00074 23.6532 1.67375 23.3263C1.34677 22.9993 1.16285 22.5559 1.16237 22.0935V2.90835C1.16285 2.44592 1.34677 2.00257 1.67375 1.67558C2.00074 1.34859 2.44409 1.16468 2.90653 1.1642H22.0935C22.5559 1.16468 22.9991 1.34861 23.326 1.67562C23.6529 2.00263 23.8367 2.44598 23.837 2.90835V22.0935Z" fill="#006083"/>
<path d="M6.04375 8.36063C6.13197 7.97409 6.34882 7.62896 6.65881 7.38177C6.96879 7.13458 7.35352 6.99997 7.75 7H18.25C18.6465 6.99997 19.0312 7.13458 19.3412 7.38177C19.6512 7.62896 19.868 7.97409 19.9563 8.36063L13 12.6122L6.04375 8.36063ZM6 9.35987V15.5759L11.0776 12.4626L6 9.35987ZM11.9159 12.9762L6.16713 16.4999C6.30916 16.7994 6.53334 17.0524 6.81356 17.2294C7.09378 17.4065 7.41853 17.5003 7.75 17.5H18.25C18.5814 17.5001 18.906 17.406 19.1861 17.2288C19.4662 17.0516 19.6902 16.7985 19.832 16.499L14.0833 12.9754L13 13.6378L11.9159 12.9762ZM14.9224 12.4635L20 15.5759V9.35987L14.9224 12.4626V12.4635Z" fill="#006083"/>
</svg>
